<svg id="SvgjsSvg1012" width="288" height="288" xmlns="http://www.w3.org/2000/svg" version="1.1" xmlns:xlink="http://www.w3.org/1999/xlink" xmlns:svgjs="http://svgjs.com/svgjs"><defs id="SvgjsDefs1013"></defs><g id="SvgjsG1014"><svg xmlns="http://www.w3.org/2000/svg" width="288" height="288" enable-background="new 0 0 420.003 420.003" viewBox="0 0 420.003 420.003"><path d="M106.52 165.751l1.043.838c1.296 1.037 2.949 1.516 4.6 1.313 1.65-.199 3.149-1.051 4.163-2.364 1.981-2.575 5.148-4.446 8.063-4.77 5.761-.636 6.039 1.89 6.146 2.839.148 1.364-1.045 5.392-4.883 10.394-.041.052-.082.104-.12.158l-15.93 22.175c-.891 1.241-1.293 2.766-1.126 4.284l.207 1.881c.375 3.393 3.43 5.839 6.823 5.464l30.661-3.383c3.393-.374 5.838-3.427 5.464-6.819l-.15-1.344c-.373-3.391-3.423-5.837-6.818-5.463l-15.547 1.717 7.442-10.389c5.457-7.127 8.229-14.475 7.599-20.178-1.127-10.228-9.675-16.242-21.271-14.963-6.613.729-13.113 4.473-17.394 10.012C103.436 159.818 103.889 163.644 106.52 165.751zM151.865 176.636c.374 3.391 3.427 5.839 6.819 5.464l6.638-.732.73 6.635c.374 3.394 3.426 5.836 6.818 5.464l1.342-.148c3.395-.374 5.839-3.426 5.464-6.819l-.731-6.634 6.638-.732c3.39-.374 5.837-3.427 5.464-6.818l-.148-1.345c-.374-3.391-3.43-5.838-6.818-5.464l-6.638.731-.73-6.636c-.375-3.392-3.427-5.837-6.819-5.462l-1.344.148c-3.392.375-5.837 3.425-5.462 6.816l.73 6.636-6.636.732c-3.392.375-5.839 3.429-5.466 6.819L151.865 176.636zM192.293 156.287l1.046.839c1.294 1.037 2.932 1.528 4.599 1.313 1.648-.199 3.148-1.051 4.16-2.363 1.983-2.577 5.147-4.449 8.063-4.771 5.76-.636 6.038 1.889 6.145 2.838.148 1.365-1.042 5.393-4.883 10.394-.041.051-.079.105-.117.158l-15.929 22.176c-.892 1.24-1.292 2.764-1.124 4.283l.209 1.882c.371 3.392 3.422 5.839 6.816 5.464l30.664-3.382c3.393-.375 5.835-3.429 5.461-6.819l-.148-1.344c-.375-3.392-3.424-5.838-6.814-5.464l-15.55 1.715 7.442-10.388c5.461-7.126 8.229-14.476 7.603-20.179-1.128-10.227-9.679-16.24-21.274-14.961-6.609.729-13.111 4.472-17.393 10.011C189.208 150.357 189.664 154.182 192.293 156.287zM270.933 165.836l-26.896 2.968c-3.393.374-5.838 3.429-5.464 6.819l.146 1.345c.375 3.394 3.43 5.838 6.819 5.464l26.898-2.968c3.391-.373 5.838-3.426 5.465-6.817l-.15-1.347C277.38 167.911 274.322 165.463 270.933 165.836zM236.559 157.379c.375 3.393 3.426 5.838 6.818 5.463l26.896-2.967c3.389-.374 5.84-3.427 5.467-6.818l-.15-1.346c-.372-3.393-3.43-5.838-6.815-5.463l-26.898 2.969c-3.396.373-5.84 3.424-5.465 6.816L236.559 157.379zM300.863 173.885c-4.354.48-7.502 4.41-7.021 8.759.48 4.353 4.408 7.499 8.761 7.021 4.354-.48 7.502-4.41 7.021-8.761C309.142 176.553 305.212 173.405 300.863 173.885zM286.189 151.378l1.358-.013c1.675-.021 3.263-.711 4.41-1.916 1.152-1.209 1.767-2.831 1.705-4.498-.049-1.215-.106-2.727 3.861-3.166 4.213-.464 4.385 1.101 4.5 2.137.293 2.649-.438 3.644-2.787 6.396-2.707 3.162-6.791 7.942-5.846 16.539.373 3.393 3.428 5.839 6.819 5.464l1.343-.148c3.396-.374 5.84-3.426 5.465-6.819-.297-2.695.438-3.7 2.812-6.468 2.693-3.144 6.771-7.893 5.832-16.4-1.076-9.748-8.94-15.507-19.576-14.335-10.125 1.117-16.461 7.895-16.133 17.266C280.07 148.765 282.835 151.412 286.189 151.378z" fill="#ffffff" class="color000 svgShape"></path><path d="M364.841,44.43H232.225V22.223C232.225,9.95,222.274,0,210.002,0s-22.223,9.95-22.223,22.223V44.43H55.163
				c-9.597,0-17.382,7.785-17.382,17.384v210.458c0,9.6,7.785,17.384,17.382,17.384h102.799l-51.456,97.771
				c-5.719,10.861-1.547,24.297,9.315,30.018c3.3,1.734,6.842,2.56,10.331,2.56c7.982,0,15.705-4.317,19.684-11.879l41.943-79.697
				V380c0,12.271,9.95,22.219,22.223,22.219s22.223-9.945,22.223-22.219v-51.573l41.941,79.697
				c3.979,7.56,11.702,11.876,19.685,11.876c3.489,0,7.032-0.823,10.33-2.56c10.862-5.721,15.034-19.154,9.315-30.018
				l-51.455-97.771H364.84c9.595,0,17.382-7.784,17.382-17.384V61.813C382.222,52.215,374.435,44.43,364.841,44.43z
				 M347.457,245.703H72.548V88.382h274.909V245.703L347.457,245.703z" fill="#ffffff" class="color000 svgShape"></path></svg></g></svg>